G04 EAGLE Gerber RS-274X export*
G75*
%MOMM*%
%FSLAX34Y34*%
%LPD*%
%IN*%
%IPPOS*%
%AMOC8*
5,1,8,0,0,1.08239X$1,22.5*%
G01*
G04 Define Apertures*
%ADD10C,0.254000*%
D10*
X-850000Y-765147D02*
X-853536Y-769006D01*
X-856723Y-773159D01*
X-859535Y-777574D01*
X-861952Y-782217D01*
X-863955Y-787052D01*
X-865529Y-792044D01*
X-866662Y-797155D01*
X-867345Y-802344D01*
X-867574Y-807574D01*
X-867345Y-812803D01*
X-866662Y-817992D01*
X-865529Y-823103D01*
X-863955Y-828095D01*
X-861952Y-832931D01*
X-859535Y-837574D01*
X-856723Y-841988D01*
X-853536Y-846141D01*
X-850000Y-850000D01*
X-846141Y-853536D01*
X-841988Y-856723D01*
X-837574Y-859535D01*
X-832931Y-861952D01*
X-828095Y-863955D01*
X-823103Y-865529D01*
X-817992Y-866662D01*
X-812803Y-867345D01*
X-807574Y-867574D01*
X-802344Y-867345D01*
X-797155Y-866662D01*
X-792044Y-865529D01*
X-787052Y-863955D01*
X-782217Y-861952D01*
X-777574Y-859535D01*
X-773159Y-856723D01*
X-769006Y-853536D01*
X-765147Y-850000D01*
X-250000Y-334853D01*
X-250000Y-550000D01*
X250000Y-550000D01*
X250000Y-334853D01*
X765147Y-850000D01*
X769006Y-853536D01*
X773159Y-856723D01*
X777574Y-859535D01*
X782217Y-861952D01*
X787052Y-863955D01*
X792044Y-865529D01*
X797155Y-866662D01*
X802344Y-867345D01*
X807574Y-867574D01*
X812803Y-867345D01*
X817992Y-866662D01*
X823103Y-865529D01*
X828095Y-863955D01*
X832931Y-861952D01*
X837574Y-859535D01*
X841988Y-856723D01*
X846141Y-853536D01*
X850000Y-850000D01*
X853536Y-846141D01*
X856723Y-841988D01*
X859535Y-837574D01*
X861952Y-832931D01*
X863955Y-828095D01*
X865529Y-823103D01*
X866662Y-817992D01*
X867345Y-812803D01*
X867574Y-807574D01*
X867345Y-802344D01*
X866662Y-797155D01*
X865529Y-792044D01*
X863955Y-787052D01*
X861952Y-782217D01*
X859535Y-777574D01*
X856723Y-773159D01*
X853536Y-769006D01*
X850000Y-765147D01*
X250000Y-165147D01*
X250000Y-150000D01*
X450000Y-150000D01*
X450000Y150000D01*
X250000Y150000D01*
X250000Y165147D01*
X850000Y765147D01*
X853536Y769006D01*
X856723Y773159D01*
X859535Y777574D01*
X861952Y782217D01*
X863955Y787052D01*
X865529Y792044D01*
X866662Y797155D01*
X867345Y802344D01*
X867574Y807574D01*
X867345Y812803D01*
X866662Y817992D01*
X865529Y823103D01*
X863955Y828095D01*
X861952Y832931D01*
X859535Y837574D01*
X856723Y841988D01*
X853536Y846141D01*
X850000Y850000D01*
X846141Y853536D01*
X841988Y856723D01*
X837574Y859535D01*
X832931Y861952D01*
X828095Y863955D01*
X823103Y865529D01*
X817992Y866662D01*
X812803Y867345D01*
X807574Y867574D01*
X802344Y867345D01*
X797155Y866662D01*
X792044Y865529D01*
X787052Y863955D01*
X782217Y861952D01*
X777574Y859535D01*
X773159Y856723D01*
X769006Y853536D01*
X765147Y850000D01*
X250000Y334853D01*
X250000Y550000D01*
X150000Y550000D01*
X150000Y850000D01*
X-150000Y850000D01*
X-150000Y550000D01*
X-250000Y550000D01*
X-250000Y334853D01*
X-765147Y850000D01*
X-769006Y853536D01*
X-773159Y856723D01*
X-777574Y859535D01*
X-782217Y861952D01*
X-787052Y863955D01*
X-792044Y865529D01*
X-797155Y866662D01*
X-802344Y867345D01*
X-807574Y867574D01*
X-812803Y867345D01*
X-817992Y866662D01*
X-823103Y865529D01*
X-828095Y863955D01*
X-832931Y861952D01*
X-837574Y859535D01*
X-841988Y856723D01*
X-846141Y853536D01*
X-850000Y850000D01*
X-853536Y846141D01*
X-856723Y841988D01*
X-859535Y837574D01*
X-861952Y832931D01*
X-863955Y828095D01*
X-865529Y823103D01*
X-866662Y817992D01*
X-867345Y812803D01*
X-867574Y807574D01*
X-867345Y802344D01*
X-866662Y797155D01*
X-865529Y792044D01*
X-863955Y787052D01*
X-861952Y782217D01*
X-859535Y777574D01*
X-856723Y773159D01*
X-853536Y769006D01*
X-850000Y765147D01*
X-250000Y165147D01*
X-250000Y150000D01*
X-450000Y150000D01*
X-450000Y-150000D01*
X-250000Y-150000D01*
X-250000Y-165147D01*
X-850000Y-765147D01*
X-765074Y-808452D02*
X-765074Y-806695D01*
X-765146Y-804940D01*
X-765291Y-803188D01*
X-765509Y-801445D01*
X-765798Y-799712D01*
X-766158Y-797992D01*
X-766590Y-796289D01*
X-767091Y-794605D01*
X-767662Y-792943D01*
X-768300Y-791306D01*
X-769006Y-789697D01*
X-769778Y-788118D01*
X-770614Y-786573D01*
X-771514Y-785064D01*
X-772475Y-783593D01*
X-773496Y-782163D01*
X-774575Y-780776D01*
X-775710Y-779435D01*
X-776900Y-778143D01*
X-778143Y-776900D01*
X-779435Y-775710D01*
X-780776Y-774575D01*
X-782163Y-773496D01*
X-783593Y-772475D01*
X-785064Y-771514D01*
X-786573Y-770614D01*
X-788118Y-769778D01*
X-789697Y-769006D01*
X-791306Y-768300D01*
X-792943Y-767662D01*
X-794605Y-767091D01*
X-796289Y-766590D01*
X-797992Y-766158D01*
X-799712Y-765798D01*
X-801445Y-765509D01*
X-803188Y-765291D01*
X-804940Y-765146D01*
X-806695Y-765074D01*
X-808452Y-765074D01*
X-810208Y-765146D01*
X-811959Y-765291D01*
X-813702Y-765509D01*
X-815435Y-765798D01*
X-817155Y-766158D01*
X-818858Y-766590D01*
X-820542Y-767091D01*
X-822204Y-767662D01*
X-823841Y-768300D01*
X-825450Y-769006D01*
X-827029Y-769778D01*
X-828574Y-770614D01*
X-830083Y-771514D01*
X-831554Y-772475D01*
X-832984Y-773496D01*
X-834371Y-774575D01*
X-835712Y-775710D01*
X-837004Y-776900D01*
X-838247Y-778143D01*
X-839437Y-779435D01*
X-840572Y-780776D01*
X-841652Y-782163D01*
X-842673Y-783593D01*
X-843634Y-785064D01*
X-844533Y-786573D01*
X-845369Y-788118D01*
X-846141Y-789697D01*
X-846847Y-791306D01*
X-847486Y-792943D01*
X-848056Y-794605D01*
X-848557Y-796289D01*
X-848989Y-797992D01*
X-849349Y-799712D01*
X-849639Y-801445D01*
X-849856Y-803188D01*
X-850001Y-804940D01*
X-850074Y-806695D01*
X-850074Y-808452D01*
X-850001Y-810208D01*
X-849856Y-811959D01*
X-849639Y-813702D01*
X-849349Y-815435D01*
X-848989Y-817155D01*
X-848557Y-818858D01*
X-848056Y-820542D01*
X-847486Y-822204D01*
X-846847Y-823841D01*
X-846141Y-825450D01*
X-845369Y-827029D01*
X-844533Y-828574D01*
X-843634Y-830083D01*
X-842673Y-831554D01*
X-841652Y-832984D01*
X-840572Y-834371D01*
X-839437Y-835712D01*
X-838247Y-837004D01*
X-837004Y-838247D01*
X-835712Y-839437D01*
X-834371Y-840572D01*
X-832984Y-841652D01*
X-831554Y-842673D01*
X-830083Y-843634D01*
X-828574Y-844533D01*
X-827029Y-845369D01*
X-825450Y-846141D01*
X-823841Y-846847D01*
X-822204Y-847486D01*
X-820542Y-848056D01*
X-818858Y-848557D01*
X-817155Y-848989D01*
X-815435Y-849349D01*
X-813702Y-849639D01*
X-811959Y-849856D01*
X-810208Y-850001D01*
X-808452Y-850074D01*
X-806695Y-850074D01*
X-804940Y-850001D01*
X-803188Y-849856D01*
X-801445Y-849639D01*
X-799712Y-849349D01*
X-797992Y-848989D01*
X-796289Y-848557D01*
X-794605Y-848056D01*
X-792943Y-847486D01*
X-791306Y-846847D01*
X-789697Y-846141D01*
X-788118Y-845369D01*
X-786573Y-844533D01*
X-785064Y-843634D01*
X-783593Y-842673D01*
X-782163Y-841652D01*
X-780776Y-840572D01*
X-779435Y-839437D01*
X-778143Y-838247D01*
X-776900Y-837004D01*
X-775710Y-835712D01*
X-774575Y-834371D01*
X-773496Y-832984D01*
X-772475Y-831554D01*
X-771514Y-830083D01*
X-770614Y-828574D01*
X-769778Y-827029D01*
X-769006Y-825450D01*
X-768300Y-823841D01*
X-767662Y-822204D01*
X-767091Y-820542D01*
X-766590Y-818858D01*
X-766158Y-817155D01*
X-765798Y-815435D01*
X-765509Y-813702D01*
X-765291Y-811959D01*
X-765146Y-810208D01*
X-765074Y-808452D01*
X850074Y-808452D02*
X850074Y-806695D01*
X850001Y-804940D01*
X849856Y-803188D01*
X849639Y-801445D01*
X849349Y-799712D01*
X848989Y-797992D01*
X848557Y-796289D01*
X848056Y-794605D01*
X847486Y-792943D01*
X846847Y-791306D01*
X846141Y-789697D01*
X845369Y-788118D01*
X844533Y-786573D01*
X843634Y-785064D01*
X842673Y-783593D01*
X841652Y-782163D01*
X840572Y-780776D01*
X839437Y-779435D01*
X838247Y-778143D01*
X837004Y-776900D01*
X835712Y-775710D01*
X834371Y-774575D01*
X832984Y-773496D01*
X831554Y-772475D01*
X830083Y-771514D01*
X828574Y-770614D01*
X827029Y-769778D01*
X825450Y-769006D01*
X823841Y-768300D01*
X822204Y-767662D01*
X820542Y-767091D01*
X818858Y-766590D01*
X817155Y-766158D01*
X815435Y-765798D01*
X813702Y-765509D01*
X811959Y-765291D01*
X810208Y-765146D01*
X808452Y-765074D01*
X806695Y-765074D01*
X804940Y-765146D01*
X803188Y-765291D01*
X801445Y-765509D01*
X799712Y-765798D01*
X797992Y-766158D01*
X796289Y-766590D01*
X794605Y-767091D01*
X792943Y-767662D01*
X791306Y-768300D01*
X789697Y-769006D01*
X788118Y-769778D01*
X786573Y-770614D01*
X785064Y-771514D01*
X783593Y-772475D01*
X782163Y-773496D01*
X780776Y-774575D01*
X779435Y-775710D01*
X778143Y-776900D01*
X776900Y-778143D01*
X775710Y-779435D01*
X774575Y-780776D01*
X773496Y-782163D01*
X772475Y-783593D01*
X771514Y-785064D01*
X770614Y-786573D01*
X769778Y-788118D01*
X769006Y-789697D01*
X768300Y-791306D01*
X767662Y-792943D01*
X767091Y-794605D01*
X766590Y-796289D01*
X766158Y-797992D01*
X765798Y-799712D01*
X765509Y-801445D01*
X765291Y-803188D01*
X765146Y-804940D01*
X765074Y-806695D01*
X765074Y-808452D01*
X765146Y-810208D01*
X765291Y-811959D01*
X765509Y-813702D01*
X765798Y-815435D01*
X766158Y-817155D01*
X766590Y-818858D01*
X767091Y-820542D01*
X767662Y-822204D01*
X768300Y-823841D01*
X769006Y-825450D01*
X769778Y-827029D01*
X770614Y-828574D01*
X771514Y-830083D01*
X772475Y-831554D01*
X773496Y-832984D01*
X774575Y-834371D01*
X775710Y-835712D01*
X776900Y-837004D01*
X778143Y-838247D01*
X779435Y-839437D01*
X780776Y-840572D01*
X782163Y-841652D01*
X783593Y-842673D01*
X785064Y-843634D01*
X786573Y-844533D01*
X788118Y-845369D01*
X789697Y-846141D01*
X791306Y-846847D01*
X792943Y-847486D01*
X794605Y-848056D01*
X796289Y-848557D01*
X797992Y-848989D01*
X799712Y-849349D01*
X801445Y-849639D01*
X803188Y-849856D01*
X804940Y-850001D01*
X806695Y-850074D01*
X808452Y-850074D01*
X810208Y-850001D01*
X811959Y-849856D01*
X813702Y-849639D01*
X815435Y-849349D01*
X817155Y-848989D01*
X818858Y-848557D01*
X820542Y-848056D01*
X822204Y-847486D01*
X823841Y-846847D01*
X825450Y-846141D01*
X827029Y-845369D01*
X828574Y-844533D01*
X830083Y-843634D01*
X831554Y-842673D01*
X832984Y-841652D01*
X834371Y-840572D01*
X835712Y-839437D01*
X837004Y-838247D01*
X838247Y-837004D01*
X839437Y-835712D01*
X840572Y-834371D01*
X841652Y-832984D01*
X842673Y-831554D01*
X843634Y-830083D01*
X844533Y-828574D01*
X845369Y-827029D01*
X846141Y-825450D01*
X846847Y-823841D01*
X847486Y-822204D01*
X848056Y-820542D01*
X848557Y-818858D01*
X848989Y-817155D01*
X849349Y-815435D01*
X849639Y-813702D01*
X849856Y-811959D01*
X850001Y-810208D01*
X850074Y-808452D01*
X-765074Y806695D02*
X-765074Y808452D01*
X-765146Y810208D01*
X-765291Y811959D01*
X-765509Y813702D01*
X-765798Y815435D01*
X-766158Y817155D01*
X-766590Y818858D01*
X-767091Y820542D01*
X-767662Y822204D01*
X-768300Y823841D01*
X-769006Y825450D01*
X-769778Y827029D01*
X-770614Y828574D01*
X-771514Y830083D01*
X-772475Y831554D01*
X-773496Y832984D01*
X-774575Y834371D01*
X-775710Y835712D01*
X-776900Y837004D01*
X-778143Y838247D01*
X-779435Y839437D01*
X-780776Y840572D01*
X-782163Y841652D01*
X-783593Y842673D01*
X-785064Y843634D01*
X-786573Y844533D01*
X-788118Y845369D01*
X-789697Y846141D01*
X-791306Y846847D01*
X-792943Y847486D01*
X-794605Y848056D01*
X-796289Y848557D01*
X-797992Y848989D01*
X-799712Y849349D01*
X-801445Y849639D01*
X-803188Y849856D01*
X-804940Y850001D01*
X-806695Y850074D01*
X-808452Y850074D01*
X-810208Y850001D01*
X-811959Y849856D01*
X-813702Y849639D01*
X-815435Y849349D01*
X-817155Y848989D01*
X-818858Y848557D01*
X-820542Y848056D01*
X-822204Y847486D01*
X-823841Y846847D01*
X-825450Y846141D01*
X-827029Y845369D01*
X-828574Y844533D01*
X-830083Y843634D01*
X-831554Y842673D01*
X-832984Y841652D01*
X-834371Y840572D01*
X-835712Y839437D01*
X-837004Y838247D01*
X-838247Y837004D01*
X-839437Y835712D01*
X-840572Y834371D01*
X-841652Y832984D01*
X-842673Y831554D01*
X-843634Y830083D01*
X-844533Y828574D01*
X-845369Y827029D01*
X-846141Y825450D01*
X-846847Y823841D01*
X-847486Y822204D01*
X-848056Y820542D01*
X-848557Y818858D01*
X-848989Y817155D01*
X-849349Y815435D01*
X-849639Y813702D01*
X-849856Y811959D01*
X-850001Y810208D01*
X-850074Y808452D01*
X-850074Y806695D01*
X-850001Y804940D01*
X-849856Y803188D01*
X-849639Y801445D01*
X-849349Y799712D01*
X-848989Y797992D01*
X-848557Y796289D01*
X-848056Y794605D01*
X-847486Y792943D01*
X-846847Y791306D01*
X-846141Y789697D01*
X-845369Y788118D01*
X-844533Y786573D01*
X-843634Y785064D01*
X-842673Y783593D01*
X-841652Y782163D01*
X-840572Y780776D01*
X-839437Y779435D01*
X-838247Y778143D01*
X-837004Y776900D01*
X-835712Y775710D01*
X-834371Y774575D01*
X-832984Y773496D01*
X-831554Y772475D01*
X-830083Y771514D01*
X-828574Y770614D01*
X-827029Y769778D01*
X-825450Y769006D01*
X-823841Y768300D01*
X-822204Y767662D01*
X-820542Y767091D01*
X-818858Y766590D01*
X-817155Y766158D01*
X-815435Y765798D01*
X-813702Y765509D01*
X-811959Y765291D01*
X-810208Y765146D01*
X-808452Y765074D01*
X-806695Y765074D01*
X-804940Y765146D01*
X-803188Y765291D01*
X-801445Y765509D01*
X-799712Y765798D01*
X-797992Y766158D01*
X-796289Y766590D01*
X-794605Y767091D01*
X-792943Y767662D01*
X-791306Y768300D01*
X-789697Y769006D01*
X-788118Y769778D01*
X-786573Y770614D01*
X-785064Y771514D01*
X-783593Y772475D01*
X-782163Y773496D01*
X-780776Y774575D01*
X-779435Y775710D01*
X-778143Y776900D01*
X-776900Y778143D01*
X-775710Y779435D01*
X-774575Y780776D01*
X-773496Y782163D01*
X-772475Y783593D01*
X-771514Y785064D01*
X-770614Y786573D01*
X-769778Y788118D01*
X-769006Y789697D01*
X-768300Y791306D01*
X-767662Y792943D01*
X-767091Y794605D01*
X-766590Y796289D01*
X-766158Y797992D01*
X-765798Y799712D01*
X-765509Y801445D01*
X-765291Y803188D01*
X-765146Y804940D01*
X-765074Y806695D01*
X850074Y806695D02*
X850074Y808452D01*
X850001Y810208D01*
X849856Y811959D01*
X849639Y813702D01*
X849349Y815435D01*
X848989Y817155D01*
X848557Y818858D01*
X848056Y820542D01*
X847486Y822204D01*
X846847Y823841D01*
X846141Y825450D01*
X845369Y827029D01*
X844533Y828574D01*
X843634Y830083D01*
X842673Y831554D01*
X841652Y832984D01*
X840572Y834371D01*
X839437Y835712D01*
X838247Y837004D01*
X837004Y838247D01*
X835712Y839437D01*
X834371Y840572D01*
X832984Y841652D01*
X831554Y842673D01*
X830083Y843634D01*
X828574Y844533D01*
X827029Y845369D01*
X825450Y846141D01*
X823841Y846847D01*
X822204Y847486D01*
X820542Y848056D01*
X818858Y848557D01*
X817155Y848989D01*
X815435Y849349D01*
X813702Y849639D01*
X811959Y849856D01*
X810208Y850001D01*
X808452Y850074D01*
X806695Y850074D01*
X804940Y850001D01*
X803188Y849856D01*
X801445Y849639D01*
X799712Y849349D01*
X797992Y848989D01*
X796289Y848557D01*
X794605Y848056D01*
X792943Y847486D01*
X791306Y846847D01*
X789697Y846141D01*
X788118Y845369D01*
X786573Y844533D01*
X785064Y843634D01*
X783593Y842673D01*
X782163Y841652D01*
X780776Y840572D01*
X779435Y839437D01*
X778143Y838247D01*
X776900Y837004D01*
X775710Y835712D01*
X774575Y834371D01*
X773496Y832984D01*
X772475Y831554D01*
X771514Y830083D01*
X770614Y828574D01*
X769778Y827029D01*
X769006Y825450D01*
X768300Y823841D01*
X767662Y822204D01*
X767091Y820542D01*
X766590Y818858D01*
X766158Y817155D01*
X765798Y815435D01*
X765509Y813702D01*
X765291Y811959D01*
X765146Y810208D01*
X765074Y808452D01*
X765074Y806695D01*
X765146Y804940D01*
X765291Y803188D01*
X765509Y801445D01*
X765798Y799712D01*
X766158Y797992D01*
X766590Y796289D01*
X767091Y794605D01*
X767662Y792943D01*
X768300Y791306D01*
X769006Y789697D01*
X769778Y788118D01*
X770614Y786573D01*
X771514Y785064D01*
X772475Y783593D01*
X773496Y782163D01*
X774575Y780776D01*
X775710Y779435D01*
X776900Y778143D01*
X778143Y776900D01*
X779435Y775710D01*
X780776Y774575D01*
X782163Y773496D01*
X783593Y772475D01*
X785064Y771514D01*
X786573Y770614D01*
X788118Y769778D01*
X789697Y769006D01*
X791306Y768300D01*
X792943Y767662D01*
X794605Y767091D01*
X796289Y766590D01*
X797992Y766158D01*
X799712Y765798D01*
X801445Y765509D01*
X803188Y765291D01*
X804940Y765146D01*
X806695Y765074D01*
X808452Y765074D01*
X810208Y765146D01*
X811959Y765291D01*
X813702Y765509D01*
X815435Y765798D01*
X817155Y766158D01*
X818858Y766590D01*
X820542Y767091D01*
X822204Y767662D01*
X823841Y768300D01*
X825450Y769006D01*
X827029Y769778D01*
X828574Y770614D01*
X830083Y771514D01*
X831554Y772475D01*
X832984Y773496D01*
X834371Y774575D01*
X835712Y775710D01*
X837004Y776900D01*
X838247Y778143D01*
X839437Y779435D01*
X840572Y780776D01*
X841652Y782163D01*
X842673Y783593D01*
X843634Y785064D01*
X844533Y786573D01*
X845369Y788118D01*
X846141Y789697D01*
X846847Y791306D01*
X847486Y792943D01*
X848056Y794605D01*
X848557Y796289D01*
X848989Y797992D01*
X849349Y799712D01*
X849639Y801445D01*
X849856Y803188D01*
X850001Y804940D01*
X850074Y806695D01*
M02*
