G04 EAGLE Gerber RS-274X export*
G75*
%MOMM*%
%FSLAX34Y34*%
%LPD*%
%INSoldermask Bottom*%
%IPPOS*%
%AMOC8*
5,1,8,0,0,1.08239X$1,22.5*%
G01*
G04 Define Apertures*
%ADD10C,1.778200*%
D10*
X88900Y-531203D02*
X104650Y-531203D01*
X104650Y-505803D02*
X88900Y-505803D01*
X88900Y-480403D02*
X104650Y-480403D01*
X104650Y-455003D02*
X88900Y-455003D01*
X88900Y-429603D02*
X104650Y-429603D01*
X104650Y-404203D02*
X88900Y-404203D01*
X88900Y-378803D02*
X104650Y-378803D01*
X104650Y-353403D02*
X88900Y-353403D01*
X88900Y-328003D02*
X104650Y-328003D01*
X104650Y-302603D02*
X88900Y-302603D01*
X88900Y-277203D02*
X104650Y-277203D01*
X104650Y-251803D02*
X88900Y-251803D01*
X88900Y-226403D02*
X104650Y-226403D01*
X104650Y-201003D02*
X88900Y-201003D01*
X88900Y-175603D02*
X104650Y-175603D01*
X104650Y-150203D02*
X88900Y-150203D01*
X88900Y-124803D02*
X104650Y-124803D01*
X104650Y-99403D02*
X88900Y-99403D01*
X88900Y-74003D02*
X104650Y-74003D01*
X104650Y-48603D02*
X88900Y-48603D01*
X-88900Y-48603D02*
X-104650Y-48603D01*
X-104650Y-74003D02*
X-88900Y-74003D01*
X-88900Y-99403D02*
X-104650Y-99403D01*
X-104650Y-124803D02*
X-88900Y-124803D01*
X-88900Y-150203D02*
X-104650Y-150203D01*
X-104650Y-175603D02*
X-88900Y-175603D01*
X-88900Y-201003D02*
X-104650Y-201003D01*
X-104650Y-226403D02*
X-88900Y-226403D01*
X-88900Y-251803D02*
X-104650Y-251803D01*
X-104650Y-277203D02*
X-88900Y-277203D01*
X-88900Y-302603D02*
X-104650Y-302603D01*
X-104650Y-328003D02*
X-88900Y-328003D01*
X-88900Y-353403D02*
X-104650Y-353403D01*
X-104650Y-378803D02*
X-88900Y-378803D01*
X-88900Y-404203D02*
X-104650Y-404203D01*
X-104650Y-429603D02*
X-88900Y-429603D01*
X-88900Y-455003D02*
X-104650Y-455003D01*
X-104650Y-480403D02*
X-88900Y-480403D01*
X-88900Y-505803D02*
X-104650Y-505803D01*
X-104650Y-531203D02*
X-88900Y-531203D01*
X-406400Y-79250D02*
X-406400Y-63500D01*
X-381000Y-63500D02*
X-381000Y-79250D01*
X-355600Y-79250D02*
X-355600Y-63500D01*
X-330200Y-63500D02*
X-330200Y-79250D01*
X-304800Y-79250D02*
X-304800Y-63500D01*
X-279400Y-63500D02*
X-279400Y-79250D01*
X-406400Y88900D02*
X-406400Y104650D01*
X-381000Y104650D02*
X-381000Y88900D01*
X-355600Y88900D02*
X-355600Y104650D01*
X-330200Y104650D02*
X-330200Y88900D01*
X-304800Y88900D02*
X-304800Y104650D01*
X-279400Y104650D02*
X-279400Y88900D01*
X279400Y-76200D02*
X279400Y-91950D01*
X304800Y-91950D02*
X304800Y-76200D01*
X330200Y-76200D02*
X330200Y-91950D01*
X355600Y-91950D02*
X355600Y-76200D01*
X381000Y-76200D02*
X381000Y-91950D01*
X406400Y-91950D02*
X406400Y-76200D01*
X279400Y76200D02*
X279400Y91950D01*
X304800Y91950D02*
X304800Y76200D01*
X330200Y76200D02*
X330200Y91950D01*
X355600Y91950D02*
X355600Y76200D01*
X381000Y76200D02*
X381000Y91950D01*
X406400Y91950D02*
X406400Y76200D01*
X114300Y495300D02*
X114300Y511050D01*
X88900Y511050D02*
X88900Y495300D01*
X63500Y495300D02*
X63500Y511050D01*
X38100Y511050D02*
X38100Y495300D01*
X12700Y495300D02*
X12700Y511050D01*
X-12700Y511050D02*
X-12700Y495300D01*
X-38100Y495300D02*
X-38100Y511050D01*
X-63500Y511050D02*
X-63500Y495300D01*
X-88900Y495300D02*
X-88900Y511050D01*
X-114300Y511050D02*
X-114300Y495300D01*
X-88900Y12700D02*
X-88900Y-3050D01*
X-63500Y-3050D02*
X-63500Y12700D01*
X-38100Y12700D02*
X-38100Y-3050D01*
X-12700Y-3050D02*
X-12700Y12700D01*
X12700Y12700D02*
X12700Y-3050D01*
X38100Y-3050D02*
X38100Y12700D01*
X63500Y12700D02*
X63500Y-3050D01*
X88900Y-3050D02*
X88900Y12700D01*
X63500Y165100D02*
X63500Y180850D01*
X38100Y180850D02*
X38100Y165100D01*
X12700Y165100D02*
X12700Y180850D01*
X-12700Y180850D02*
X-12700Y165100D01*
X-38100Y165100D02*
X-38100Y180850D01*
X-50800Y800100D02*
X-50800Y815850D01*
X-25400Y815850D02*
X-25400Y800100D01*
X0Y800100D02*
X0Y815850D01*
X25400Y815850D02*
X25400Y800100D01*
X50800Y800100D02*
X50800Y815850D01*
X-716483Y734443D02*
X-727620Y745580D01*
X-745580Y727620D02*
X-734443Y716483D01*
X-734443Y-716483D02*
X-745580Y-727620D01*
X-727620Y-745580D02*
X-716483Y-734443D01*
X714920Y732880D02*
X726057Y744017D01*
X744017Y726057D02*
X732880Y714920D01*
X745580Y-727620D02*
X756717Y-738757D01*
X738757Y-756717D02*
X727620Y-745580D01*
M02*
